# Blender 3.4.1
# www.blender.org
mtllib knight_b.mtl
o Cube.005
v -8.857779 2.478584 -7.162648
v -8.599394 4.490624 -7.169889
v -10.335162 3.228584 -7.169888
v -9.835162 3.228584 -7.247760
v -8.835162 2.978584 -7.169889
v -8.707853 3.478584 -7.242947
v -8.835162 3.978584 -7.169889
v -10.710503 3.811210 -7.105933
v -10.962470 3.478584 -7.242946
v -10.835162 3.007618 -7.081213
v -9.329830 2.478584 -7.365765
v -9.801882 2.478584 -7.162647
v -8.835162 3.228584 -7.169889
v -10.835162 3.228584 -7.169888
v -9.107988 4.276249 -7.169888
v -8.918447 4.536688 -7.169889
v -10.335162 2.978584 -7.127776
v -9.835162 2.978584 -7.072101
v -9.335162 2.978584 -7.169888
v -10.398816 3.478584 -7.242946
v -9.835162 3.478584 -7.320818
v -9.271507 3.478584 -7.320818
v -10.335162 3.811210 -7.169888
v -9.687008 4.047364 -7.169888
v -9.335162 3.978584 -7.169888
v -8.090256 2.478584 -6.738456
v -8.463778 4.174492 -6.738456
v -10.335554 2.932827 -6.738455
v -10.341613 3.876709 -6.738455
v -10.835161 2.933220 -6.738455
v -11.097278 3.478584 -6.738455
v -10.835161 3.877519 -6.738455
v -8.215558 2.978584 -6.738456
v -8.392921 3.478584 -6.738456
v -8.336933 3.978584 -6.738456
v -9.683696 4.082322 -6.738455
v -9.394720 4.391800 -6.738455
v -9.153512 4.439173 -6.738455
v -9.906504 2.478584 -6.738455
v -9.959176 2.876249 -6.738455
v -9.335162 3.228584 -7.247760
v -8.185783 3.228584 -6.738456
v -10.888632 3.228584 -6.738455
v -7.831648 0.862967 -6.738456
v -8.652282 0.862967 -7.246561
v -9.365427 0.862967 -7.553417
v -10.078572 0.862967 -7.246561
v -9.365427 0.862967 -6.738455
v -10.236627 0.862967 -6.738455
v -10.085162 3.228584 -7.208824
v -10.085162 2.978584 -7.099938
v -10.116989 3.478584 -7.281882
v -10.011085 3.840445 -7.169888
v -8.424850 2.478584 -6.831689
v -8.494411 3.228584 -6.833281
v -9.331698 4.156000 -6.833280
v -9.101847 4.258574 -6.833281
v -9.883509 2.478584 -6.831688
v -9.931919 2.898741 -6.811788
v -9.684423 4.074638 -6.833280
v -8.604202 4.130405 -6.833281
v -8.517642 2.978584 -6.833281
v -8.628041 3.478584 -6.849338
v -8.612339 3.978584 -6.833281
v -8.153043 0.862967 -6.850132
v -9.365427 0.862967 -6.917576
v -10.201888 0.862967 -6.850132
v -9.334718 0.513980 -5.738455
v -9.334718 0.867324 -5.738455
v -9.643734 0.513980 -5.787399
v -9.643734 0.867324 -5.787399
v -9.922503 0.513980 -5.929438
v -9.922503 0.867324 -5.929438
v -10.143735 0.513980 -6.150670
v -10.143735 0.867324 -6.150670
v -10.285774 0.513980 -6.429438
v -10.285774 0.867324 -6.429438
v -10.334718 0.513980 -6.738455
v -10.334718 0.867324 -6.738455
v -10.285774 0.513980 -7.047472
v -10.285774 0.867324 -7.047472
v -10.143735 0.513980 -7.326241
v -10.143735 0.867324 -7.326241
v -9.922503 0.513980 -7.547472
v -9.922503 0.867324 -7.547472
v -9.643735 0.513980 -7.689512
v -9.643735 0.867324 -7.689512
v -9.334718 0.513980 -7.738455
v -9.334718 0.867324 -7.738455
v -9.025702 0.513980 -7.689512
v -9.025702 0.867324 -7.689512
v -8.746933 0.513980 -7.547472
v -8.746933 0.867324 -7.547472
v -8.525701 0.513980 -7.326241
v -8.525701 0.867324 -7.326241
v -8.383661 0.513980 -7.047472
v -8.383661 0.867324 -7.047472
v -8.334718 0.513980 -6.738456
v -8.334718 0.867324 -6.738456
v -8.383661 0.513980 -6.429439
v -8.383661 0.867324 -6.429439
v -8.525701 0.513980 -6.150670
v -8.525701 0.867324 -6.150670
v -8.746932 0.513980 -5.929439
v -8.746932 0.867324 -5.929439
v -9.025701 0.513980 -5.787399
v -9.025701 0.867324 -5.787399
v -8.857778 2.478584 -6.314263
v -8.599394 4.490624 -6.307022
v -10.335161 3.228584 -6.307022
v -9.835161 3.228584 -6.229150
v -8.835161 2.978584 -6.307022
v -8.707853 3.478584 -6.233964
v -8.835161 3.978584 -6.307022
v -10.710502 3.811210 -6.370977
v -10.962470 3.478584 -6.233963
v -10.835161 3.007618 -6.395697
v -9.329830 2.478584 -6.111146
v -9.801882 2.478584 -6.314263
v -8.835161 3.228584 -6.307022
v -10.835161 3.228584 -6.307022
v -9.107988 4.276249 -6.307022
v -8.918447 4.536688 -6.307022
v -10.335161 2.978584 -6.349134
v -9.835162 2.978584 -6.404809
v -9.335161 2.978584 -6.307022
v -10.398816 3.478584 -6.233964
v -9.835161 3.478584 -6.156093
v -9.271507 3.478584 -6.156093
v -10.335161 3.811210 -6.307022
v -9.687008 4.047364 -6.307022
v -9.335161 3.978584 -6.307022
v -9.335161 3.228584 -6.229150
v -8.652282 0.862967 -6.230350
v -9.365427 0.862967 -5.923493
v -10.078571 0.862967 -6.230350
v -10.085161 3.228584 -6.268086
v -10.085161 2.978584 -6.376972
v -10.116988 3.478584 -6.195028
v -10.011085 3.840445 -6.307022
v -8.424850 2.478584 -6.645222
v -8.494411 3.228584 -6.643631
v -9.331698 4.156000 -6.643631
v -9.101847 4.258574 -6.643631
v -9.883509 2.478584 -6.645222
v -9.931919 2.898741 -6.665123
v -9.684423 4.074638 -6.643630
v -8.604202 4.130405 -6.643631
v -8.517642 2.978584 -6.643631
v -8.628041 3.478584 -6.627573
v -8.612339 3.978584 -6.643631
v -8.153043 0.862967 -6.626779
v -9.365427 0.862967 -6.559334
v -10.201888 0.862967 -6.626778
v -9.334718 0.513980 -7.738455
v -9.334718 0.867324 -7.738455
v -9.643735 0.513980 -7.689512
v -9.643735 0.867324 -7.689512
v -9.922503 0.513980 -7.547472
v -9.922503 0.867324 -7.547472
v -10.143735 0.513980 -7.326241
v -10.143735 0.867324 -7.326241
v -10.285774 0.513980 -7.047472
v -10.285774 0.867324 -7.047472
v -10.285774 0.513980 -6.429438
v -10.285774 0.867324 -6.429438
v -10.143735 0.513980 -6.150670
v -10.143735 0.867324 -6.150670
v -9.922503 0.513980 -5.929438
v -9.922503 0.867324 -5.929438
v -9.643734 0.513980 -5.787399
v -9.643734 0.867324 -5.787399
v -9.334718 0.513980 -5.738455
v -9.334718 0.867324 -5.738455
v -9.025701 0.513980 -5.787399
v -9.025701 0.867324 -5.787399
v -8.746932 0.513980 -5.929439
v -8.746932 0.867324 -5.929439
v -8.525701 0.513980 -6.150670
v -8.525701 0.867324 -6.150670
v -8.383661 0.513980 -6.429439
v -8.383661 0.867324 -6.429439
v -8.383661 0.513980 -7.047472
v -8.383661 0.867324 -7.047472
v -8.525701 0.513980 -7.326241
v -8.525701 0.867324 -7.326241
v -8.746933 0.513980 -7.547472
v -8.746933 0.867324 -7.547472
v -9.025702 0.513980 -7.689512
v -9.025702 0.867324 -7.689512
vn -0.9900 -0.1162 -0.0795
vn -0.0000 -0.0000 -1.0000
vn 0.2964 -0.0314 -0.9545
vn 0.1486 0.6965 0.7020
vn 0.2013 0.1782 -0.9632
vn 0.1370 -0.3257 -0.9355
vn 0.0710 0.2309 -0.9704
vn -0.0869 -0.4505 -0.8885
vn -0.8078 -0.5665 -0.1625
vn -0.7628 0.5869 -0.2716
vn -0.0642 0.3281 -0.9425
vn -0.1660 0.3098 -0.9362
vn 0.0203 0.2703 -0.9626
vn -0.0000 -0.2805 -0.9599
vn -0.1388 -0.2859 -0.9481
vn -0.0193 -0.4945 -0.8690
vn -0.0428 -0.9820 -0.1839
vn -0.2860 0.2536 -0.9240
vn 0.0767 -0.1534 -0.9852
vn -0.2059 0.9596 -0.1917
vn -0.6536 0.7551 0.0516
vn 0.3934 0.0975 -0.9142
vn 0.2977 0.0543 -0.9531
vn -0.9474 -0.1098 -0.3006
vn -0.0526 -0.2672 -0.9622
vn -0.3158 0.9484 0.0273
vn 0.3737 -0.0119 -0.9275
vn 0.3462 0.2066 -0.9151
vn 0.2828 0.0601 -0.9573
vn 0.3991 0.1362 -0.9067
vn -0.0000 -1.0000 -0.0000
vn -0.3926 0.1146 -0.9125
vn -0.9463 0.1827 -0.2666
vn -0.0212 -0.2890 -0.9571
vn -0.1381 -0.3020 -0.9432
vn -0.0748 0.2738 -0.9589
vn -0.9448 0.1911 -0.2662
vn 0.8434 -0.3099 -0.4389
vn 0.6641 0.0400 -0.7466
vn 0.8639 -0.0778 -0.4976
vn 0.9152 0.1359 -0.3793
vn -0.3222 0.5290 -0.7850
vn -0.9543 -0.0494 -0.2946
vn 0.6111 0.1151 -0.7831
vn -0.1220 0.3834 -0.9155
vn 0.1942 0.5868 -0.7861
vn 0.7146 -0.0332 -0.6987
vn -0.1564 -0.0000 0.9877
vn -0.4540 -0.0000 0.8910
vn -0.7071 -0.0000 0.7071
vn -0.8910 -0.0000 0.4540
vn -0.9877 -0.0000 0.1564
vn -0.9877 -0.0000 -0.1564
vn -0.8910 -0.0000 -0.4540
vn -0.7071 -0.0000 -0.7071
vn -0.4540 -0.0000 -0.8910
vn -0.1564 -0.0000 -0.9877
vn 0.1564 -0.0000 -0.9877
vn 0.4540 -0.0000 -0.8910
vn 0.7071 -0.0000 -0.7071
vn 0.8910 -0.0000 -0.4540
vn 0.9877 -0.0000 -0.1564
vn 0.9877 -0.0000 0.1564
vn 0.8910 -0.0000 0.4540
vn 0.7071 -0.0000 0.7071
vn -0.0000 1.0000 -0.0000
vn 0.4540 -0.0000 0.8910
vn 0.1564 -0.0000 0.9877
vn -0.9900 -0.1162 0.0795
vn -0.0000 -0.0000 1.0000
vn 0.2964 -0.0314 0.9545
vn 0.1486 0.6965 -0.7020
vn 0.2013 0.1782 0.9632
vn 0.1370 -0.3257 0.9355
vn 0.0710 0.2309 0.9704
vn -0.0869 -0.4505 0.8885
vn -0.8078 -0.5665 0.1625
vn -0.7628 0.5869 0.2716
vn -0.0642 0.3281 0.9425
vn -0.1660 0.3098 0.9362
vn 0.0203 0.2703 0.9626
vn -0.0000 -0.2805 0.9599
vn -0.1388 -0.2859 0.9481
vn -0.0193 -0.4945 0.8690
vn -0.0428 -0.9820 0.1839
vn -0.2860 0.2536 0.9240
vn 0.0767 -0.1534 0.9852
vn -0.2059 0.9596 0.1917
vn -0.6536 0.7551 -0.0516
vn 0.3934 0.0975 0.9142
vn 0.2977 0.0543 0.9531
vn -0.9474 -0.1098 0.3006
vn -0.0526 -0.2672 0.9622
vn -0.3158 0.9484 -0.0273
vn 0.3737 -0.0119 0.9275
vn 0.3462 0.2066 0.9151
vn 0.2828 0.0601 0.9573
vn 0.3991 0.1362 0.9067
vn -0.3926 0.1146 0.9125
vn -0.9463 0.1827 0.2666
vn -0.0212 -0.2890 0.9571
vn -0.1381 -0.3020 0.9432
vn -0.0748 0.2738 0.9589
vn -0.9448 0.1911 0.2662
vn 0.8434 -0.3099 0.4389
vn 0.6641 0.0400 0.7466
vn 0.8639 -0.0778 0.4976
vn 0.9152 0.1359 0.3793
vn -0.3222 0.5290 0.7850
vn -0.9543 -0.0494 0.2946
vn 0.6111 0.1151 0.7831
vn -0.1220 0.3834 0.9155
vn 0.1942 0.5868 0.7861
vn 0.7146 -0.0332 0.6987
vt 0.375000 1.000000
vt 0.375000 0.000000
vt 0.613351 1.000000
vt 0.875000 0.750000
vt 0.613351 0.000000
vt 0.468750 0.812500
vt 0.468750 0.875000
vt 0.437500 1.000000
vt 0.437500 0.000000
vt 0.500000 1.000000
vt 0.500000 0.000000
vt 0.562500 1.000000
vt 0.562500 0.000000
vt 0.562500 0.750000
vt 0.500000 0.750000
vt 0.437500 0.750000
vt 0.375000 0.937500
vt 0.375000 0.875000
vt 0.250000 0.750000
vt 0.468750 1.000000
vt 0.468750 0.000000
vt 0.468750 0.750000
vt 0.750000 0.750000
vt 0.625000 0.875000
vt 0.835206 0.750000
vt 0.620768 0.960206
vt 0.437500 0.812500
vt 0.338338 0.676675
vt 0.437500 0.937500
vt 0.500000 0.812500
vt 0.500000 0.875000
vt 0.500000 0.937500
vt 0.562500 0.812500
vt 0.562500 0.875000
vt 0.562500 0.937500
vt 0.375000 0.125000
vt 0.642236 0.117287
vt 0.868092 0.625000
vt 0.000000 0.000000
vt 0.000000 0.000000
vt 0.437500 0.625000
vt 0.500000 0.625000
vt 0.562500 0.625000
vt 0.437500 0.125000
vt 0.500000 0.125000
vt 0.562500 0.125000
vt 0.000000 0.000000
vt 0.750000 0.625000
vt 0.835206 0.625000
vt 0.250000 0.625000
vt 0.000000 0.000000
vt 0.468750 0.937500
vt 0.468750 0.125000
vt 0.468750 0.625000
vt 0.375000 0.125000
vt 0.125000 0.625000
vt 0.375000 1.000000
vt 0.125000 0.750000
vt 0.375000 0.000000
vt 0.187500 0.750000
vt 0.375000 0.937500
vt 0.375000 0.875000
vt 0.250000 0.750000
vt 0.187500 0.625000
vt 0.250000 0.625000
vt 0.468750 0.843750
vt 0.387919 0.744588
vt 0.500000 0.843750
vt 0.562500 0.843750
vt 0.375000 0.097526
vt 0.468750 0.097526
vt 0.722526 0.679948
vt 0.750000 0.652474
vt 0.835206 0.652474
vt 0.250000 0.652474
vt 0.074363 0.148727
vt 0.123632 0.192317
vt 0.613351 0.097526
vt 0.875000 0.652474
vt 0.437500 0.097526
vt 0.500000 0.097526
vt 0.562500 0.097526
vt 0.125000 0.652474
vt 0.375000 0.097526
vt 0.187500 0.652474
vt 0.250000 0.652474
vt 1.000000 0.500000
vt -0.000000 0.500000
vt 0.750000 0.490000
vt 1.000000 1.000000
vt 0.250000 0.490000
vt -0.000000 1.000000
vt 0.950000 0.500000
vt 0.824164 0.478254
vt 0.950000 1.000000
vt 0.324164 0.478254
vt 0.900000 0.500000
vt 0.891068 0.444164
vt 0.900000 1.000000
vt 0.391068 0.444164
vt 0.850000 0.500000
vt 0.944164 0.391068
vt 0.850000 1.000000
vt 0.444164 0.391068
vt 0.800000 0.500000
vt 0.978254 0.324164
vt 0.800000 1.000000
vt 0.478254 0.324164
vt 0.750000 0.500000
vt 0.990000 0.250000
vt 0.750000 1.000000
vt 0.490000 0.250000
vt 0.700000 0.500000
vt 0.978254 0.175836
vt 0.700000 1.000000
vt 0.478254 0.175836
vt 0.650000 0.500000
vt 0.944164 0.108932
vt 0.650000 1.000000
vt 0.444164 0.108932
vt 0.600000 0.500000
vt 0.891068 0.055836
vt 0.600000 1.000000
vt 0.391068 0.055836
vt 0.550000 0.500000
vt 0.824164 0.021746
vt 0.550000 1.000000
vt 0.324164 0.021746
vt 0.500000 0.500000
vt 0.750000 0.010000
vt 0.500000 1.000000
vt 0.250000 0.010000
vt 0.450000 0.500000
vt 0.675836 0.021746
vt 0.450000 1.000000
vt 0.175836 0.021746
vt 0.400000 0.500000
vt 0.608932 0.055836
vt 0.400000 1.000000
vt 0.108932 0.055836
vt 0.350000 0.500000
vt 0.555836 0.108932
vt 0.350000 1.000000
vt 0.055836 0.108932
vt 0.300000 0.500000
vt 0.521746 0.175836
vt 0.300000 1.000000
vt 0.021746 0.175836
vt 0.250000 0.500000
vt 0.510000 0.250000
vt 0.250000 1.000000
vt 0.010000 0.250000
vt 0.200000 0.500000
vt 0.521746 0.324164
vt 0.200000 1.000000
vt 0.021746 0.324164
vt 0.150000 0.500000
vt 0.555836 0.391068
vt 0.150000 1.000000
vt 0.055836 0.391068
vt 0.100000 0.500000
vt 0.608932 0.444164
vt 0.108932 0.444164
vt 0.100000 1.000000
vt 0.050000 0.500000
vt 0.675836 0.478254
vt 0.175836 0.478254
vt 0.050000 1.000000
vt 0.375000 1.000000
vt 0.375000 0.000000
vt 0.613351 1.000000
vt 0.875000 0.750000
vt 0.613351 0.000000
vt 0.468750 0.812500
vt 0.468750 0.875000
vt 0.437500 1.000000
vt 0.437500 0.000000
vt 0.500000 1.000000
vt 0.500000 0.000000
vt 0.562500 1.000000
vt 0.562500 0.000000
vt 0.562500 0.750000
vt 0.500000 0.750000
vt 0.437500 0.750000
vt 0.375000 0.937500
vt 0.375000 0.875000
vt 0.250000 0.750000
vt 0.468750 1.000000
vt 0.468750 0.000000
vt 0.468750 0.750000
vt 0.750000 0.750000
vt 0.625000 0.875000
vt 0.835206 0.750000
vt 0.620768 0.960206
vt 0.437500 0.812500
vt 0.338338 0.676675
vt 0.437500 0.937500
vt 0.500000 0.812500
vt 0.500000 0.875000
vt 0.500000 0.937500
vt 0.562500 0.812500
vt 0.562500 0.875000
vt 0.562500 0.937500
vt 0.468750 0.937500
vt 0.375000 1.000000
vt 0.125000 0.750000
vt 0.375000 0.000000
vt 0.187500 0.750000
vt 0.375000 0.937500
vt 0.375000 0.875000
vt 0.250000 0.750000
vt 0.468750 0.843750
vt 0.387919 0.744588
vt 0.500000 0.843750
vt 0.562500 0.843750
vt 0.375000 0.097526
vt 0.468750 0.097526
vt 0.722526 0.679948
vt 0.750000 0.652474
vt 0.835206 0.652474
vt 0.250000 0.652474
vt 0.074363 0.148727
vt 0.123632 0.192317
vt 0.613351 0.097526
vt 0.875000 0.652474
vt 0.437500 0.097526
vt 0.500000 0.097526
vt 0.562500 0.097526
vt 0.125000 0.652474
vt 0.375000 0.097526
vt 0.187500 0.652474
vt 0.250000 0.652474
vt 1.000000 0.500000
vt -0.000000 0.500000
vt 0.750000 0.490000
vt 1.000000 1.000000
vt 0.250000 0.490000
vt -0.000000 1.000000
vt 0.950000 0.500000
vt 0.824164 0.478254
vt 0.950000 1.000000
vt 0.324164 0.478254
vt 0.900000 0.500000
vt 0.891068 0.444164
vt 0.900000 1.000000
vt 0.391068 0.444164
vt 0.850000 0.500000
vt 0.944164 0.391068
vt 0.850000 1.000000
vt 0.444164 0.391068
vt 0.800000 0.500000
vt 0.978254 0.324164
vt 0.800000 1.000000
vt 0.478254 0.324164
vt 0.700000 0.500000
vt 0.978254 0.175836
vt 0.700000 1.000000
vt 0.478254 0.175836
vt 0.650000 0.500000
vt 0.944164 0.108932
vt 0.650000 1.000000
vt 0.444164 0.108932
vt 0.600000 0.500000
vt 0.891068 0.055836
vt 0.600000 1.000000
vt 0.391068 0.055836
vt 0.550000 0.500000
vt 0.824164 0.021746
vt 0.550000 1.000000
vt 0.324164 0.021746
vt 0.500000 0.500000
vt 0.750000 0.010000
vt 0.500000 1.000000
vt 0.250000 0.010000
vt 0.450000 0.500000
vt 0.675836 0.021746
vt 0.450000 1.000000
vt 0.175836 0.021746
vt 0.400000 0.500000
vt 0.608932 0.055836
vt 0.400000 1.000000
vt 0.108932 0.055836
vt 0.350000 0.500000
vt 0.555836 0.108932
vt 0.350000 1.000000
vt 0.055836 0.108932
vt 0.300000 0.500000
vt 0.521746 0.175836
vt 0.300000 1.000000
vt 0.021746 0.175836
vt 0.200000 0.500000
vt 0.521746 0.324164
vt 0.200000 1.000000
vt 0.021746 0.324164
vt 0.150000 0.500000
vt 0.555836 0.391068
vt 0.150000 1.000000
vt 0.055836 0.391068
vt 0.100000 0.500000
vt 0.608932 0.444164
vt 0.108932 0.444164
vt 0.100000 1.000000
vt 0.050000 0.500000
vt 0.675836 0.478254
vt 0.175836 0.478254
vt 0.050000 1.000000
s 0
usemtl Material.001
f 30/41/1 43/54/1 14/22/1 10/16/1
f 25/35/2 16/26/2 2/3/2 7/12/2
f 62/80/3 55/71/3 42/53/3 33/44/3
f 57/74/4 61/79/4 2/4/4 16/25/4
f 11/17/5 19/29/5 5/8/5 1/1/5
f 41/52/6 22/32/6 6/10/6 13/20/6
f 22/32/7 25/35/7 7/12/7 6/10/7
f 18/28/8 4/7/8 41/52/8 19/29/8
f 43/54/9 31/42/9 9/15/9 14/22/9
f 31/42/10 32/43/10 8/14/10 9/15/10
f 9/15/11 8/14/11 23/33/11 20/30/11
f 52/68/12 53/69/12 24/34/12 21/31/12
f 21/31/13 24/34/13 25/35/13 22/32/13
f 14/22/14 9/15/14 20/30/14 3/6/14
f 50/66/15 52/68/15 21/31/15 4/7/15
f 4/7/14 21/31/14 22/32/14 41/52/14
f 51/67/16 50/66/16 4/7/16 18/28/16
f 30/41/17 10/16/17 17/27/17 51/67/17 18/28/17 59/76/17 40/51/17 28/39/17
f 12/18/18 18/28/18 19/29/18 11/17/18
f 19/29/19 41/52/19 13/20/19 5/8/19
f 32/43/20 29/40/20 36/47/20 60/77/20 24/34/20 53/69/20 23/33/20 8/14/20
f 56/73/21 57/74/21 16/25/21 15/23/21
f 11/17/22 1/1/22 45/57/22 46/61/22
f 54/70/23 26/36/23 44/55/23 65/84/23
f 58/75/24 39/50/24 40/51/24 59/76/24
f 10/16/25 14/22/25 3/6/25 17/27/25
f 56/72/26 15/24/26 24/34/26 60/77/26
f 24/34/2 15/24/2 16/26/2 25/35/2
f 63/81/27 64/82/27 35/46/27 34/45/27
f 55/71/28 63/81/28 34/45/28 42/53/28
f 54/70/29 62/80/29 33/44/29 26/36/29
f 64/82/30 61/78/30 27/37/30 35/46/30
f 65/83/31 66/85/31 46/60/31 45/58/31
f 66/85/31 67/86/31 47/63/31 46/60/31
f 12/18/32 11/17/32 46/61/32 47/62/32
f 58/75/33 12/19/33 47/63/33 67/86/33
f 17/27/34 3/6/34 50/66/34 51/67/34
f 3/6/35 20/30/35 52/68/35 50/66/35
f 20/30/36 23/33/36 53/69/36 52/68/36
f 39/50/37 58/75/37 67/86/37 49/65/37
f 48/64/31 49/65/31 67/86/31 66/85/31
f 44/56/31 48/64/31 66/85/31 65/83/31
f 7/13/38 2/5/38 61/78/38 64/82/38
f 1/2/39 5/9/39 62/80/39 54/70/39
f 13/21/40 6/11/40 63/81/40 55/71/40
f 6/11/41 7/13/41 64/82/41 63/81/41
f 37/48/42 56/72/42 60/77/42 36/47/42
f 12/19/43 58/75/43 59/76/43 18/28/43
f 1/2/44 54/70/44 65/84/44 45/59/44
f 37/48/45 38/49/45 57/74/45 56/73/45
f 38/49/46 27/38/46 61/79/46 57/74/46
f 5/9/47 13/21/47 55/71/47 62/80/47
f 68/87/48 69/90/48 71/95/48 70/93/48
f 70/93/49 71/95/49 73/99/49 72/97/49
f 72/97/50 73/99/50 75/103/50 74/101/50
f 74/101/51 75/103/51 77/107/51 76/105/51
f 76/105/52 77/107/52 79/111/52 78/109/52
f 78/109/53 79/111/53 81/115/53 80/113/53
f 80/113/54 81/115/54 83/119/54 82/117/54
f 82/117/55 83/119/55 85/123/55 84/121/55
f 84/121/56 85/123/56 87/127/56 86/125/56
f 86/125/57 87/127/57 89/131/57 88/129/57
f 88/129/58 89/131/58 91/135/58 90/133/58
f 90/133/59 91/135/59 93/139/59 92/137/59
f 92/137/60 93/139/60 95/143/60 94/141/60
f 94/141/61 95/143/61 97/147/61 96/145/61
f 96/145/62 97/147/62 99/151/62 98/149/62
f 98/149/63 99/151/63 101/155/63 100/153/63
f 100/153/64 101/155/64 103/159/64 102/157/64
f 102/157/65 103/159/65 105/164/65 104/161/65
f 71/96/66 69/91/66 107/167/66 105/163/66 103/160/66 101/156/66 99/152/66 97/148/66 95/144/66 93/140/66 91/136/66 89/132/66 87/128/66 85/124/66 83/120/66 81/116/66 79/112/66 77/108/66 75/104/66 73/100/66
f 104/161/67 105/164/67 107/168/67 106/165/67
f 106/165/68 107/168/68 69/92/68 68/88/68
f 68/89/31 70/94/31 72/98/31 74/102/31 76/106/31 78/110/31 80/114/31 82/118/31 84/122/31 86/126/31 88/130/31 90/134/31 92/138/31 94/142/31 96/146/31 98/150/31 100/154/31 102/158/31 104/162/31 106/166/31
f 30/41/69 117/184/69 121/190/69 43/54/69
f 132/203/70 114/180/70 109/171/70 123/194/70
f 149/226/71 33/44/71 42/53/71 142/217/71
f 144/220/72 123/193/72 109/172/72 148/225/72
f 118/185/73 108/169/73 112/176/73 126/197/73
f 133/204/74 120/188/74 113/178/74 129/200/74
f 129/200/75 113/178/75 114/180/75 132/203/75
f 125/196/76 126/197/76 133/204/76 111/175/76
f 43/54/77 121/190/77 116/183/77 31/42/77
f 31/42/78 116/183/78 115/182/78 32/43/78
f 116/183/79 127/198/79 130/201/79 115/182/79
f 139/214/80 128/199/80 131/202/80 140/215/80
f 128/199/81 129/200/81 132/203/81 131/202/81
f 121/190/82 110/174/82 127/198/82 116/183/82
f 137/212/83 111/175/83 128/199/83 139/214/83
f 111/175/82 133/204/82 129/200/82 128/199/82
f 138/213/84 125/196/84 111/175/84 137/212/84
f 30/41/85 28/39/85 40/51/85 146/222/85 125/196/85 138/213/85 124/195/85 117/184/85
f 119/186/86 118/185/86 126/197/86 125/196/86
f 126/197/87 112/176/87 120/188/87 133/204/87
f 32/43/88 115/182/88 130/201/88 140/215/88 131/202/88 147/223/88 36/47/88 29/40/88
f 143/219/89 122/191/89 123/193/89 144/220/89
f 118/185/90 135/209/90 134/205/90 108/169/90
f 141/216/91 152/230/91 44/55/91 26/36/91
f 145/221/92 146/222/92 40/51/92 39/50/92
f 117/184/93 124/195/93 110/174/93 121/190/93
f 143/218/94 147/223/94 131/202/94 122/192/94
f 131/202/70 132/203/70 123/194/70 122/192/70
f 150/227/95 34/45/95 35/46/95 151/228/95
f 142/217/96 42/53/96 34/45/96 150/227/96
f 141/216/97 26/36/97 33/44/97 149/226/97
f 151/228/98 35/46/98 27/37/98 148/224/98
f 152/229/31 134/206/31 135/208/31 153/231/31
f 153/231/31 135/208/31 136/211/31 154/232/31
f 119/186/99 136/210/99 135/209/99 118/185/99
f 145/221/100 154/232/100 136/211/100 119/187/100
f 124/195/101 138/213/101 137/212/101 110/174/101
f 110/174/102 137/212/102 139/214/102 127/198/102
f 127/198/103 139/214/103 140/215/103 130/201/103
f 39/50/104 49/65/104 154/232/104 145/221/104
f 48/64/31 153/231/31 154/232/31 49/65/31
f 44/56/31 152/229/31 153/231/31 48/64/31
f 114/181/105 151/228/105 148/224/105 109/173/105
f 108/170/106 141/216/106 149/226/106 112/177/106
f 120/189/107 142/217/107 150/227/107 113/179/107
f 113/179/108 150/227/108 151/228/108 114/181/108
f 37/48/109 36/47/109 147/223/109 143/218/109
f 119/187/110 125/196/110 146/222/110 145/221/110
f 108/170/111 134/207/111 152/230/111 141/216/111
f 37/48/112 143/219/112 144/220/112 38/49/112
f 38/49/113 144/220/113 148/225/113 27/38/113
f 112/177/114 149/226/114 142/217/114 120/189/114
f 155/233/57 157/239/57 158/241/57 156/236/57
f 157/239/56 159/243/56 160/245/56 158/241/56
f 159/243/55 161/247/55 162/249/55 160/245/55
f 161/247/54 163/251/54 164/253/54 162/249/54
f 163/251/53 78/109/53 79/111/53 164/253/53
f 78/109/52 165/255/52 166/257/52 79/111/52
f 165/255/51 167/259/51 168/261/51 166/257/51
f 167/259/50 169/263/50 170/265/50 168/261/50
f 169/263/49 171/267/49 172/269/49 170/265/49
f 171/267/48 173/271/48 174/273/48 172/269/48
f 173/271/68 175/275/68 176/277/68 174/273/68
f 175/275/67 177/279/67 178/281/67 176/277/67
f 177/279/65 179/283/65 180/285/65 178/281/65
f 179/283/64 181/287/64 182/289/64 180/285/64
f 181/287/63 98/149/63 99/151/63 182/289/63
f 98/149/62 183/291/62 184/293/62 99/151/62
f 183/291/61 185/295/61 186/297/61 184/293/61
f 185/295/60 187/299/60 188/302/60 186/297/60
f 158/242/66 160/246/66 162/250/66 164/254/66 79/112/66 166/258/66 168/262/66 170/266/66 172/270/66 174/274/66 176/278/66 178/282/66 180/286/66 182/290/66 99/152/66 184/294/66 186/298/66 188/301/66 190/305/66 156/237/66
f 187/299/59 189/303/59 190/306/59 188/302/59
f 189/303/58 155/234/58 156/238/58 190/306/58
f 155/235/31 189/304/31 187/300/31 185/296/31 183/292/31 98/150/31 181/288/31 179/284/31 177/280/31 175/276/31 173/272/31 171/268/31 169/264/31 167/260/31 165/256/31 78/110/31 163/252/31 161/248/31 159/244/31 157/240/31
